<?xml version="1.0" standalone="no"?><!DOCTYPE svg PUBLIC "-//W3C//DTD SVG 1.1//EN" "http://www.w3.org/Graphics/SVG/1.1/DTD/svg11.dtd"><svg t="1744365160768" class="icon" viewBox="0 0 1233 1024" version="1.1" xmlns="http://www.w3.org/2000/svg" p-id="5194" data-spm-anchor-id="a313x.search_index.0.i10.b4e33a811eQPQ6" xmlns:xlink="http://www.w3.org/1999/xlink" width="240.8203125" height="200"><path d="M682.666667 198.704762l551.009523 238.933333-307.2 131.657143v307.2c-112.152381 87.771429-214.552381 126.780952-316.95238 126.780952s-190.171429-39.009524-268.190477-126.780952v-346.209524l-209.67619-92.647619 551.009524-238.933333z" fill="#9ac6ff" opacity=".2" p-id="5195" data-spm-anchor-id="a313x.search_index.0.i3.b4e33a811eQPQ6" class="selected"></path><path d="M1014.247619 252.342857h97.52381v487.619048h-97.52381z" fill="#FFFFFF" p-id="5196"></path><path d="M599.771429 496.152381l-599.771429-238.933333 599.771429-238.933334 599.771428 238.933334-599.771428 238.933333z m-336.457143-238.933333l336.457143 136.533333 336.457142-136.533333-336.457142-136.533334-336.457143 136.533334z" fill="#3573fe" p-id="5197" data-spm-anchor-id="a313x.search_index.0.i1.b4e33a811eQPQ6" class=""></path><path d="M629.028571 905.752381c-102.4 0-253.561905-39.009524-346.209523-146.285714l-9.752381-14.628572v-424.228571h97.523809v385.219047c68.266667 68.266667 180.419048 102.4 258.438095 102.4s126.780952-24.380952 229.180953-107.27619v-380.342857h97.523809v429.104762l-19.504762 14.628571c-102.4 87.771429-180.419048 141.409524-307.2 141.409524z" fill="#3573fe" p-id="5198" data-spm-anchor-id="a313x.search_index.0.i2.b4e33a811eQPQ6" class=""></path></svg>