<?xml version="1.0" standalone="no"?><!DOCTYPE svg PUBLIC "-//W3C//DTD SVG 1.1//EN" "http://www.w3.org/Graphics/SVG/1.1/DTD/svg11.dtd"><svg t="1744365094554" class="icon" viewBox="0 0 1024 1024" version="1.1" xmlns="http://www.w3.org/2000/svg" p-id="25458" xmlns:xlink="http://www.w3.org/1999/xlink" width="200" height="200"><path d="M714.88 103.978667h-405.333333c-59.733333 0-106.666667 46.933333-106.666667 106.666666v256c0 59.733333 46.933333 106.666667 106.666667 106.666667h405.333333c59.733333 0 106.666667-46.933333 106.666667-106.666667v-256c0-59.733333-46.933333-106.666667-106.666667-106.666666z" fill="#A4CDFF" p-id="25459"></path><path d="M842.666667 264.192H181.333333c-59.733333 0-106.666667 46.933333-106.666666 106.666667v443.733333c0 59.733333 46.933333 106.666667 106.666666 106.666667h661.333334c59.733333 0 106.666667-46.933333 106.666666-106.666667v-443.733333c0-59.733333-46.933333-106.666667-106.666666-106.666667z" fill="#3C7EFE" p-id="25460"></path><path d="M514.133333 622.592l-294.4-102.4c-21.333333-8.533333-34.133333-34.133333-25.6-55.466667s29.866667-34.133333 55.466667-25.6l264.533333 93.866667 264.533334-93.866667c21.333333-8.533333 46.933333 4.266667 55.466666 25.6 8.533333 21.333333-4.266667 46.933333-25.6 55.466667l-294.4 102.4z" fill="#FFFFFF" p-id="25461"></path></svg>